<?xml version="1.0" standalone="no"?>
<!DOCTYPE svg PUBLIC "-//W3C//DTD SVG 20010904//EN"
 "http://www.w3.org/TR/2001/REC-SVG-20010904/DTD/svg10.dtd">
<svg version="1.0" xmlns="http://www.w3.org/2000/svg"
 width="273.000000pt" height="273.000000pt" viewBox="0 0 273.000000 273.000000"
 preserveAspectRatio="xMidYMid meet">
<metadata>
Created by potrace 1.11, written by Peter Selinger 2001-2013
</metadata>
<g transform="translate(0.000000,273.000000) scale(0.100000,-0.100000)"
fill="#000000" stroke="none">
<path d="M1275 2583 c-298 -20 -577 -151 -787 -371 -442 -462 -435 -1198 16
-1655 37 -39 74 -67 82 -65 10 2 25 32 41 82 l25 79 51 -7 c234 -29 329 -27
467 6 134 32 280 140 330 243 31 66 38 161 16 220 -23 58 -98 126 -172 156
-51 20 -76 23 -179 23 -104 0 -132 -4 -205 -28 -47 -16 -111 -41 -142 -57 -67
-34 -78 -35 -78 -10 0 15 54 296 127 664 9 48 22 87 28 87 11 0 282 -164 302
-183 10 -9 9 -35 -3 -115 -9 -57 -13 -106 -11 -108 3 -3 49 4 103 15 200 40
323 37 460 -11 141 -48 244 -156 290 -303 23 -74 26 -98 22 -178 -5 -107 -37
-210 -94 -307 -72 -123 -239 -265 -392 -335 -31 -14 -64 -30 -73 -35 -21 -11
-208 -65 -276 -79 -28 -6 -95 -14 -148 -17 -52 -4 -98 -11 -101 -16 -8 -12 57
-37 145 -55 110 -23 361 -23 469 0 286 61 543 224 715 452 113 151 191 329
222 504 19 109 19 326 0 428 -28 148 -100 328 -178 443 -53 79 -130 170 -144
170 -7 0 -20 -11 -28 -24 -9 -14 -47 -50 -84 -81 -190 -158 -383 -223 -631
-212 -146 7 -210 23 -334 82 -96 46 -279 172 -284 196 -2 14 116 102 268 198
78 49 229 126 323 165 51 21 47 36 -10 37 -27 0 -59 2 -73 3 -14 1 -47 1 -75
-1z"/>
</g>
</svg>
